# xmcd
#
# Track frame offsets:
#	150
#	14969
#	26248
#	40206
#	51123
#	62810
#	75036
#	96679
#	108891
#	119116
#
# Disc length: 1741 seconds
# Revision: 0
# Processed by: cddbd v1.5.2PL0 Copyright (c) Steve Scherf et al.
# Submitted via: dBpowerAMP V12.0
#
DISCID=8a06cb0a
DTITLE=Bill Dobkins - Favorite Songs Friends And Memories
DYEAR=1900
DGENRE=Country
TTITLE0=Someday When Things Are Good
TTITLE1=For A Minute There
TTITLE2=Slide Off Of Satin Sheets
TTITLE3=Is Anybody Going To San Antone
TTITLE4=What's Made Millwaukee Famous
TTITLE5=Eleven Roses
TTITLE6=Poncho And Lefty
TTITLE7=You Take Me For Granted
TTITLE8=A-11
TTITLE9=She Even Woke Me Up To Say Goodbye
EXTD=
EXTT0=
EXTT1=
EXTT2=
EXTT3=
EXTT4=
EXTT5=
EXTT6=
EXTT7=
EXTT8=
EXTT9=
PLAYORDER=
